<?xml version="1.0" encoding="UTF-8"?>
<svg xmlns="http://www.w3.org/2000/svg" xmlns:xlink="http://www.w3.org/1999/xlink" width="32pt" height="32pt" viewBox="0 0 32 32" version="1.1">
<g id="surface1">
<path style=" stroke:none;fill-rule:nonzero;fill:rgb(0%,0%,0%);fill-opacity:1;" d="M 16 0 C 7.164062 0 0 7.164062 0 16 C 0 24.835938 7.164062 32 16 32 C 24.835938 32 32 24.835938 32 16 C 32 7.164062 24.835938 0 16 0 Z M 9.078125 13.347656 C 7.554688 13.347656 6.320312 12.113281 6.320312 10.589844 C 6.316406 9.066406 7.554688 7.828125 9.078125 7.828125 C 10.601562 7.828125 11.835938 9.066406 11.835938 10.589844 C 11.835938 12.113281 10.601562 13.347656 9.078125 13.347656 Z M 16 27.191406 C 14.476562 27.191406 13.242188 25.953125 13.242188 24.429688 C 13.242188 22.910156 14.476562 21.671875 16 21.671875 C 17.523438 21.671875 18.757812 22.910156 18.757812 24.429688 C 18.757812 25.953125 17.523438 27.191406 16 27.191406 Z M 16 20.265625 C 14.476562 20.265625 13.242188 19.03125 13.242188 17.507812 C 13.242188 15.984375 14.476562 14.75 16 14.75 C 17.523438 14.75 18.757812 15.984375 18.757812 17.507812 C 18.757812 19.035156 17.523438 20.269531 16 20.269531 Z M 16 13.34375 C 14.476562 13.34375 13.242188 12.109375 13.242188 10.585938 C 13.242188 9.0625 14.476562 7.828125 16 7.828125 C 17.523438 7.828125 18.757812 9.0625 18.757812 10.585938 C 18.757812 12.109375 17.523438 13.347656 16 13.347656 Z M 22.921875 13.34375 C 21.398438 13.34375 20.164062 12.109375 20.164062 10.585938 C 20.164062 9.0625 21.398438 7.828125 22.921875 7.828125 C 24.445312 7.828125 25.679688 9.0625 25.679688 10.585938 C 25.683594 12.109375 24.445312 13.347656 22.921875 13.347656 Z M 22.921875 13.34375 "/>
</g>
</svg>
